<?xml version="1.0" encoding="UTF-8"?>
<svg version="1.1" xmlns="http://www.w3.org/2000/svg" viewBox="0 0 448 439">
<path d="M0 0 C0.78044678 0.36625488 1.56089355 0.73250977 2.36499023 1.10986328 C5.05805308 2.44388322 7.74978302 3.78023242 10.4375 5.125 C11.91694092 5.86423706 11.91694092 5.86423706 13.42626953 6.6184082 C19.9832264 9.92049211 26.35279439 13.42187694 32.69140625 17.125 C36.81103653 19.45961929 41.02816353 21.56225172 45.27368164 23.65356445 C59.95922433 30.90540632 74.42059414 38.6204143 88.90429688 46.265625 C93.09957315 48.47890901 97.30129255 50.67893577 101.51171875 52.86328125 C111.12621804 57.8535594 120.69787632 62.90058335 130.1875 68.125 C137.93564511 72.38682417 145.76014591 76.44022853 153.68579102 80.36083984 C162.54349968 84.74643255 171.28178345 89.34423873 180 94 C181.10472656 94.58990723 182.20945312 95.17981445 183.34765625 95.78759766 C186.34658659 97.39029592 189.34376887 98.99622685 192.33978271 100.60437012 C194.10386812 101.55115848 195.86858078 102.4967778 197.63330078 103.44238281 C198.70563965 104.01956055 199.77797852 104.59673828 200.8828125 105.19140625 C201.84590332 105.70904541 202.80899414 106.22668457 203.80126953 106.76000977 C206 108 206 108 207 109 C207.12467726 110.98538531 207.17812379 112.97524524 207.20532227 114.96435547 C207.22525742 116.27358475 207.24519257 117.58281403 207.26573181 118.93171692 C207.28286103 120.41020438 207.29974283 121.88869472 207.31640625 123.3671875 C207.33724044 124.93548407 207.3583304 126.50377727 207.37965393 128.07206726 C207.43672411 132.42110959 207.48584502 136.77020931 207.53263092 141.11937332 C207.5624391 143.86938194 207.59390973 146.61936756 207.62567139 149.36935425 C208.02303766 184.33798005 208.10866482 219.30736165 208.12211341 254.27788496 C208.12376311 258.47716246 208.12673285 262.67643616 208.13081557 266.87571198 C208.13793985 274.23281565 208.13931787 281.5898927 208.13438225 288.9470005 C208.13334265 291.42681679 208.13390712 293.90663431 208.13614082 296.38644981 C208.1386802 299.79224327 208.13491514 303.19797117 208.12939453 306.60375977 C208.13142159 307.60615629 208.13344866 308.60855282 208.13553715 309.641325 C208.13271449 310.5587504 208.12989183 311.4761758 208.12698364 312.42140198 C208.12660662 313.21435952 208.12622959 314.00731707 208.12584114 314.82430363 C207.99708802 317.05034595 207.75265649 318.89888898 207 321 C204.41821289 322.76416016 204.41821289 322.76416016 200.97265625 324.5390625 C200.35717926 324.86128784 199.74170227 325.18351318 199.10757446 325.51550293 C197.09864622 326.56423093 195.08069799 327.59424231 193.0625 328.625 C191.67145322 329.34850662 190.28123684 330.07361199 188.8918457 330.80029297 C186.1537854 332.23193093 183.41328968 333.65870919 180.67089844 335.08203125 C176.30191451 337.35656375 171.98281387 339.71441717 167.6875 342.125 C166.6670459 342.6960144 166.6670459 342.6960144 165.62597656 343.27856445 C164.20544865 344.07476606 162.78554184 344.87207668 161.36621094 345.67041016 C158.63463852 347.20529908 155.89947148 348.73367789 153.1640625 350.26171875 C144.59870024 355.0488711 136.03676437 359.84167218 127.5 364.6796875 C125.93995239 365.56370239 125.93995239 365.56370239 124.34838867 366.46557617 C122.37637469 367.58408157 120.40513765 368.7039583 118.43481445 369.82543945 C117.5449585 370.33034912 116.65510254 370.83525879 115.73828125 371.35546875 C114.57872925 372.01518677 114.57872925 372.01518677 113.39575195 372.68823242 C110.63624979 374.19916742 107.81393344 375.59303328 105 377 C105 296.81 105 216.62 105 134 C102.03 133.01 102.03 133.01 99 132 C97.44865184 131.27458681 95.91504539 130.50992548 94.40234375 129.70703125 C93.53270996 129.24901123 92.66307617 128.79099121 91.76708984 128.3190918 C90.8333252 127.8219165 89.89956055 127.32474121 88.9375 126.8125 C86.88707202 125.73110074 84.83627222 124.65040626 82.78515625 123.5703125 C81.69348145 122.99442383 80.60180664 122.41853516 79.47705078 121.82519531 C75.82422879 119.90773307 72.16242878 118.00863469 68.49609375 116.1171875 C67.86245407 115.79024399 67.22881439 115.46330048 66.57597351 115.12644958 C64.07214834 113.83505703 61.5680168 112.54426317 59.0632019 111.25479126 C50.65816749 106.92658089 42.30893918 102.50921394 34 98 C34.16262329 98.72658813 34.32524658 99.45317627 34.49279785 100.20178223 C34.96495163 102.8066393 35.12197988 105.13081844 35.11523438 107.77148438 C35.11463013 108.69634644 35.11402588 109.6212085 35.11340332 110.57409668 C35.10367493 112.06882507 35.10367493 112.06882507 35.09375 113.59375 C35.09016479 114.64534302 35.08657959 115.69693604 35.08288574 116.78039551 C35.0204875 129.35572125 34.76293973 141.9275853 34.5 154.5 C34.335 162.585 34.17 170.67 34 179 C0.01 179 -33.98 179 -69 179 C-68.505 178.01 -68.505 178.01 -68 177 C-67.90914739 175.33124104 -67.88246338 173.65882007 -67.88647461 171.9875946 C-67.8865451 170.92662064 -67.8866156 169.86564667 -67.88668823 168.77252197 C-67.89185455 167.60324158 -67.89702087 166.43396118 -67.90234375 165.22924805 C-67.90380402 164.00138077 -67.90526428 162.77351349 -67.9067688 161.50843811 C-67.91058381 158.8325316 -67.91621263 156.15669881 -67.92483521 153.48081017 C-67.93835905 149.23865876 -67.94425337 144.99651783 -67.94897461 140.75434875 C-67.96103012 130.96856444 -67.98297287 121.18280692 -68.00520325 111.39704132 C-68.02544029 102.45737305 -68.04351717 93.5177145 -68.05341816 84.57802802 C-68.05836309 80.3734129 -68.06816838 76.16884724 -68.08184814 71.96425188 C-68.09116381 68.70753783 -68.09384299 65.45081622 -68.09765625 62.1940918 C-68.10282257 61.04707794 -68.10798889 59.90006409 -68.11331177 58.71829224 C-68.11380337 51.1032227 -67.6861082 43.58355055 -67 36 C-67.66 35.67 -68.32 35.34 -69 35 C-64.58248082 29.8666355 -59.26129636 27.17263128 -53.3125 24.0625 C-51.16143638 22.91801001 -49.01039554 21.7734772 -46.859375 20.62890625 C-45.73982422 20.0373877 -44.62027344 19.44586914 -43.46679688 18.83642578 C-37.64901048 15.7546378 -31.85747312 12.62440192 -26.0625 9.5 C-24.99233643 8.92515869 -23.92217285 8.35031738 -22.81958008 7.75805664 C-21.79759521 7.20883545 -20.77561035 6.65961426 -19.72265625 6.09375 C-18.7495752 5.57554688 -17.77649414 5.05734375 -16.77392578 4.5234375 C-14.96633358 3.53070952 -13.18117267 2.49562845 -11.42529297 1.4140625 C-10.64428223 0.93710938 -9.86327148 0.46015625 -9.05859375 -0.03125 C-8.39013428 -0.45986328 -7.7216748 -0.88847656 -7.03295898 -1.33007812 C-4.09581398 -2.29795682 -2.71788504 -1.35321078 0 0 Z " fill="#F7C05E" transform="translate(231,8)"/>
<path d="M0 0 C0.33 71.28 0.66 142.56 1 216 C9.25 220.29 17.5 224.58 26 229 C35.8125 234.4375 35.8125 234.4375 40.07421875 236.83203125 C45.29050319 239.74103925 50.62063524 242.40524759 56 245 C55.83766876 244.2749678 55.67533752 243.54993561 55.50808716 242.80293274 C55.03191174 240.1760455 54.87319787 237.81680101 54.87060547 235.15307617 C54.86745331 234.21827927 54.86430115 233.28348236 54.86105347 232.32035828 C54.86408981 230.82180046 54.86408981 230.82180046 54.8671875 229.29296875 C54.86623077 228.25360672 54.86527405 227.21424469 54.86428833 226.14338684 C54.86360874 223.94707173 54.8654476 221.75075459 54.86962891 219.55444336 C54.87496398 216.21007718 54.86968477 212.8658463 54.86328125 209.52148438 C54.86394239 207.38281221 54.86522429 205.24414012 54.8671875 203.10546875 C54.86516327 202.1125029 54.86313904 201.11953705 54.86105347 200.09648132 C54.87927647 194.63764491 55.1967128 189.40085005 56 184 C55.34 183.67 54.68 183.34 54 183 C56 180 56 180 57.80503941 179.6280632 C58.53933139 179.62952976 59.27362337 179.63099632 60.03016663 179.63250732 C61.29424599 179.62415359 61.29424599 179.62415359 62.5838623 179.6156311 C63.97333069 179.62945328 63.97333069 179.62945328 65.39086914 179.64355469 C66.36491196 179.64151031 67.33895477 179.63946594 68.34251404 179.63735962 C71.57358351 179.63434275 74.80414714 179.65285479 78.03515625 179.671875 C80.27192559 179.67493089 82.50869683 179.6768083 84.74546814 179.67755127 C89.43723816 179.68215991 94.12883708 179.69660829 98.82055664 179.71875 C104.8491794 179.74704909 110.87766727 179.75796243 116.90635014 179.7624321 C121.52584699 179.76657927 126.14531629 179.77639059 130.76479912 179.78830719 C132.98846654 179.79402359 135.21213665 179.79877773 137.43580818 179.80257416 C140.53676185 179.80941236 143.63760629 179.82303265 146.73852539 179.83886719 C147.66686188 179.83998505 148.59519836 179.84110291 149.55166626 179.84225464 C155.88531459 179.88531459 155.88531459 179.88531459 157 181 C157.15955555 183.02837654 157.24906474 185.06227889 157.31201172 187.09594727 C157.35335236 188.41489487 157.39469299 189.73384247 157.43728638 191.09275818 C157.47701018 192.56312505 157.51612406 194.03350849 157.5546875 195.50390625 C157.57562344 196.25475557 157.59655937 197.0056049 157.61812973 197.77920723 C158.15140628 217.16312148 158.16221672 236.54767159 158.125 255.9375 C158.12328796 256.84501637 158.12157593 257.75253273 158.11981201 258.68754959 C158.10320687 266.98495485 158.08226116 275.28233974 158.0491333 283.57969666 C158.014678 292.31849115 157.99680885 301.05631464 158.0353756 309.79511166 C158.05814548 315.26108087 158.04361552 320.72627685 158.01019287 326.19216919 C158.00345564 328.33725073 158.01025659 330.4824221 158.03131104 332.62741089 C158.05753825 335.52269356 158.03543526 338.41351043 158 341.30859375 C158.01940643 342.13153931 158.03881287 342.95448486 158.05880737 343.80236816 C157.99908443 346.11925895 157.85427845 347.8436017 157 350 C154.60634723 352.24501267 151.93548774 353.57518692 149 355 C147.82600352 355.67537666 146.65670257 356.35900767 145.49316406 357.05224609 C142.40927843 358.80030089 139.32161742 360.54077029 136.22607422 362.26806641 C134.89865031 363.01164684 133.57413003 363.76043257 132.25244141 364.51416016 C130.32575577 365.61248009 128.39074587 366.69455431 126.453125 367.7734375 C125.31004883 368.41716309 124.16697266 369.06088867 122.98925781 369.72412109 C120 371 120 371 117.92822266 370.85913086 C115.49114749 369.77327779 113.08372188 368.67177136 110.6953125 367.48046875 C109.64915771 366.95936523 108.60300293 366.43826172 107.52514648 365.90136719 C106.40309814 365.33579102 105.2810498 364.77021484 104.125 364.1875 C102.95461182 363.60000977 101.78422363 363.01251953 100.57836914 362.40722656 C92.57423384 358.37282082 84.68279578 354.15588399 76.84228516 349.81225586 C66.95872489 344.36503617 56.90463522 339.25101653 46.84545898 334.13769531 C39.1088225 330.19288556 31.52403936 326.06688311 24.00634766 321.71923828 C20.61581371 319.78029561 17.20072906 318.01751011 13.6875 316.3125 C-1.52796217 308.83452807 -16.49693861 300.85682534 -31.48901367 292.94311523 C-38.68154334 289.15364861 -45.90247309 285.41935481 -53.125 281.6875 C-54.36344764 281.04745168 -55.60189165 280.40739635 -56.84033203 279.76733398 C-58.70237098 278.80503668 -60.56441956 277.84275804 -62.42648315 276.88050842 C-68.99446587 273.48632071 -75.56152887 270.09040734 -82.125 266.6875 C-83.17961426 266.14246826 -84.23422852 265.59743652 -85.32080078 265.03588867 C-86.29001465 264.5329126 -87.25922852 264.02993652 -88.2578125 263.51171875 C-89.1048877 263.07303467 -89.95196289 262.63435059 -90.82470703 262.18237305 C-93 261 -93 261 -96 259 C-96.29424808 256.20204224 -96.39107158 253.62530646 -96.36076355 250.82504272 C-96.36332682 249.96987143 -96.3658901 249.11470014 -96.36853105 248.23361456 C-96.37349542 245.35135552 -96.35693251 242.46961359 -96.34057617 239.58740234 C-96.33973047 237.52802035 -96.34020392 235.46863745 -96.34190369 233.40925598 C-96.34276729 227.80410269 -96.32508249 222.19914053 -96.30418181 216.59403181 C-96.28547578 210.74170357 -96.28366938 204.88937134 -96.28010559 199.03701782 C-96.27076723 187.94830263 -96.24612925 176.85967578 -96.21605712 165.77099955 C-96.18256877 153.14968214 -96.16604112 140.52836059 -96.15097082 127.90700984 C-96.11958123 101.93795752 -96.066786 75.9689837 -96 50 C-95.4594548 49.71605377 -94.91890961 49.43210754 -94.36198425 49.13955688 C-91.8804107 47.83567223 -89.39918759 46.53112203 -86.91796875 45.2265625 C-86.06779175 44.77998291 -85.21761475 44.33340332 -84.3416748 43.87329102 C-78.19489601 40.64063946 -72.07823089 37.36010067 -66 34 C-66 33.34 -66 32.68 -66 32 C-65.12110107 31.88841553 -64.24220215 31.77683105 -63.33666992 31.66186523 C-59.97988245 30.99600946 -57.62200087 30.00944415 -54.61328125 28.41015625 C-53.60185059 27.87801514 -52.59041992 27.34587402 -51.54833984 26.79760742 C-49.94659912 25.93872925 -49.94659912 25.93872925 -48.3125 25.0625 C-47.20342285 24.47637939 -46.0943457 23.89025879 -44.95166016 23.28637695 C-42.69626106 22.09376449 -40.44266432 20.89773705 -38.19091797 19.69824219 C-34.54073564 17.75557438 -30.87970404 15.83427413 -27.21704102 13.9152832 C-21.97633599 11.16791475 -16.74502247 8.40363354 -11.53125 5.60546875 C-10.82887207 5.2288208 -10.12649414 4.85217285 -9.40283203 4.46411133 C-8.08501253 3.75633469 -6.76821968 3.04664199 -5.45263672 2.3347168 C-1.10951556 0 -1.10951556 0 0 0 Z " fill="#F7C05E" transform="translate(108,68)"/>
<path d="" fill="#F3BE5E" transform="translate(0,0)"/>
<path d="" fill="#F3BD5E" transform="translate(0,0)"/>
<path d="" fill="#F3BE5E" transform="translate(0,0)"/>
<path d="M0 0 C2 1 2 1 2 1 Z " fill="#957748" transform="translate(406,409)"/>
<path d="" fill="#F2BD5C" transform="translate(0,0)"/>
<path d="" fill="#F4BE5D" transform="translate(0,0)"/>
<path d="" fill="#F2BE5F" transform="translate(0,0)"/>
<path d="" fill="#D8AA58" transform="translate(0,0)"/>
<path d="M0 0 C2 1 2 1 2 1 Z " fill="#DDAD59" transform="translate(27,108)"/>
<path d="M0 0 C2 1 2 1 2 1 Z " fill="#E5B25A" transform="translate(70,85)"/>
<path d="M0 0 C2 1 2 1 2 1 Z " fill="#E2B059" transform="translate(112,70)"/>
<path d="M0 0 C2 1 2 1 2 1 Z " fill="#DAAB57" transform="translate(210,12)"/>
<path d="" fill="#7D6542" transform="translate(0,0)"/>
<path d="" fill="#8F7345" transform="translate(0,0)"/>
<path d="" fill="#726143" transform="translate(0,0)"/>
<path d="" fill="#DAA955" transform="translate(0,0)"/>
<path d="" fill="#786341" transform="translate(0,0)"/>
<path d="" fill="#876E44" transform="translate(0,0)"/>
<path d="" fill="#7E6943" transform="translate(0,0)"/>
<path d="" fill="#8A6F45" transform="translate(0,0)"/>
<path d="" fill="#776343" transform="translate(0,0)"/>
<path d="" fill="#DBA957" transform="translate(0,0)"/>
<path d="" fill="#DCAB59" transform="translate(0,0)"/>
<path d="" fill="#836B44" transform="translate(0,0)"/>
<path d="" fill="#8A7046" transform="translate(0,0)"/>
<path d="" fill="#9D7E47" transform="translate(0,0)"/>
<path d="" fill="#856E44" transform="translate(0,0)"/>
<path d="" fill="#8A7045" transform="translate(0,0)"/>
<path d="" fill="#8C7147" transform="translate(0,0)"/>
<path d="" fill="#8D7347" transform="translate(0,0)"/>
<path d="" fill="#8B7247" transform="translate(0,0)"/>
<path d="" fill="#E0AE5A" transform="translate(0,0)"/>
<path d="" fill="#846D45" transform="translate(0,0)"/>
<path d="" fill="#917547" transform="translate(0,0)"/>
<path d="" fill="#E2AD57" transform="translate(0,0)"/>
<path d="" fill="#8B7046" transform="translate(0,0)"/>
<path d="" fill="#876F46" transform="translate(0,0)"/>
<path d="" fill="#E2B159" transform="translate(0,0)"/>
<path d="" fill="#997B4A" transform="translate(0,0)"/>
<path d="" fill="#9B7C49" transform="translate(0,0)"/>
<path d="" fill="#9B7D4A" transform="translate(0,0)"/>
<path d="" fill="#AA864C" transform="translate(0,0)"/>
<path d="" fill="#CA9F55" transform="translate(0,0)"/>
<path d="" fill="#937649" transform="translate(0,0)"/>
<path d="" fill="#A0814B" transform="translate(0,0)"/>
<path d="" fill="#A5844C" transform="translate(0,0)"/>
<path d="" fill="#A3824C" transform="translate(0,0)"/>
<path d="" fill="#E4B059" transform="translate(0,0)"/>
<path d="" fill="#957747" transform="translate(0,0)"/>
<path d="" fill="#D3A455" transform="translate(0,0)"/>
<path d="" fill="#AC894D" transform="translate(0,0)"/>
<path d="" fill="#E2AD58" transform="translate(0,0)"/>
<path d="" fill="#9D7E4B" transform="translate(0,0)"/>
<path d="" fill="#DCAC59" transform="translate(0,0)"/>
<path d="" fill="#B38E4F" transform="translate(0,0)"/>
<path d="" fill="#DFAE58" transform="translate(0,0)"/>
<path d="" fill="#B4904F" transform="translate(0,0)"/>
<path d="" fill="#BB9451" transform="translate(0,0)"/>
<path d="" fill="#CB9F54" transform="translate(0,0)"/>
<path d="" fill="#E2B059" transform="translate(0,0)"/>
<path d="" fill="#E5AF58" transform="translate(0,0)"/>
<path d="" fill="#D4A658" transform="translate(0,0)"/>
<path d="" fill="#C19953" transform="translate(0,0)"/>
<path d="" fill="#E3AF58" transform="translate(0,0)"/>
<path d="" fill="#EAB55A" transform="translate(0,0)"/>
<path d="" fill="#AF8C4F" transform="translate(0,0)"/>
<path d="" fill="#C79B55" transform="translate(0,0)"/>
<path d="" fill="#E1AF59" transform="translate(0,0)"/>
<path d="" fill="#ECB85C" transform="translate(0,0)"/>
<path d="" fill="#CAA054" transform="translate(0,0)"/>
<path d="" fill="#E1AF57" transform="translate(0,0)"/>
<path d="" fill="#E1AF58" transform="translate(0,0)"/>
<path d="" fill="#E2B158" transform="translate(0,0)"/>
<path d="" fill="#D2A456" transform="translate(0,0)"/>
<path d="" fill="#DFAC5A" transform="translate(0,0)"/>
<path d="" fill="#D8A958" transform="translate(0,0)"/>
<path d="" fill="#E2B158" transform="translate(0,0)"/>
<path d="" fill="#DFAE57" transform="translate(0,0)"/>
<path d="" fill="#DDAC59" transform="translate(0,0)"/>
<path d="" fill="#D8A958" transform="translate(0,0)"/>
<path d="" fill="#D8A958" transform="translate(0,0)"/>
<path d="" fill="#DBAD59" transform="translate(0,0)"/>
<path d="" fill="#F2BC5E" transform="translate(0,0)"/>
<path d="" fill="#D4A558" transform="translate(0,0)"/>
<path d="" fill="#DDAC59" transform="translate(0,0)"/>
<path d="" fill="#F2BD5D" transform="translate(0,0)"/>
<path d="" fill="#F2BD5F" transform="translate(0,0)"/>
<path d="" fill="#F4BF5D" transform="translate(0,0)"/>
<path d="" fill="#F2BF5D" transform="translate(0,0)"/>
<path d="" fill="#F3BE61" transform="translate(0,0)"/>
<path d="" fill="#F3BD60" transform="translate(0,0)"/>
<path d="" fill="#F2BF5E" transform="translate(0,0)"/>
<path d="" fill="#F3BF5F" transform="translate(0,0)"/>
<path d="" fill="#F0BC5C" transform="translate(0,0)"/>
<path d="" fill="#F2BF5D" transform="translate(0,0)"/>
<path d="" fill="#E9B45E" transform="translate(0,0)"/>
<path d="" fill="#E7B35C" transform="translate(0,0)"/>
<path d="" fill="#F0BC5F" transform="translate(0,0)"/>
<path d="" fill="#F3C05D" transform="translate(0,0)"/>
<path d="" fill="#E5B359" transform="translate(0,0)"/>
<path d="" fill="#F3BF60" transform="translate(0,0)"/>
<path d="" fill="#F4BC61" transform="translate(0,0)"/>
<path d="" fill="#F3BE61" transform="translate(0,0)"/>
<path d="" fill="#F3BF5E" transform="translate(0,0)"/>
<path d="" fill="#F5BF5E" transform="translate(0,0)"/>
<path d="" fill="#F3BE60" transform="translate(0,0)"/>
<path d="" fill="#F2C062" transform="translate(0,0)"/>
<path d="" fill="#F1BB5E" transform="translate(0,0)"/>
<path d="" fill="#F6C05E" transform="translate(0,0)"/>
<path d="" fill="#D9A958" transform="translate(0,0)"/>
<path d="" fill="#DCAD59" transform="translate(0,0)"/>
<path d="" fill="#E3B25B" transform="translate(0,0)"/>
<path d="" fill="#DEAE59" transform="translate(0,0)"/>
<path d="" fill="#E0AE59" transform="translate(0,0)"/>
<path d="" fill="#E3B05B" transform="translate(0,0)"/>
<path d="" fill="#D5A858" transform="translate(0,0)"/>
<path d="" fill="#D3A558" transform="translate(0,0)"/>
<path d="" fill="#CCA156" transform="translate(0,0)"/>
<path d="" fill="#E1AF58" transform="translate(0,0)"/>
<path d="" fill="#BA9452" transform="translate(0,0)"/>
<path d="" fill="#AC894E" transform="translate(0,0)"/>
<path d="" fill="#B79151" transform="translate(0,0)"/>
<path d="" fill="#B59151" transform="translate(0,0)"/>
<path d="" fill="#B18E4F" transform="translate(0,0)"/>
<path d="" fill="#A0824B" transform="translate(0,0)"/>
<path d="" fill="#AD8A4E" transform="translate(0,0)"/>
<path d="" fill="#A7884D" transform="translate(0,0)"/>
<path d="" fill="#A6854D" transform="translate(0,0)"/>
<path d="" fill="#A0824C" transform="translate(0,0)"/>
<path d="" fill="#DEAD59" transform="translate(0,0)"/>
<path d="" fill="#E2B15A" transform="translate(0,0)"/>
<path d="" fill="#DCAA56" transform="translate(0,0)"/>
<path d="" fill="#DBAB58" transform="translate(0,0)"/>
<path d="" fill="#997C4A" transform="translate(0,0)"/>
<path d="" fill="#977B49" transform="translate(0,0)"/>
<path d="" fill="#947949" transform="translate(0,0)"/>
<path d="" fill="#917848" transform="translate(0,0)"/>
<path d="" fill="#907548" transform="translate(0,0)"/>
<path d="" fill="#897247" transform="translate(0,0)"/>
<path d="" fill="#887046" transform="translate(0,0)"/>
<path d="" fill="#886F47" transform="translate(0,0)"/>
<path d="" fill="#846D46" transform="translate(0,0)"/>
<path d="" fill="#836B46" transform="translate(0,0)"/>
<path d="" fill="#867047" transform="translate(0,0)"/>
<path d="" fill="#7D6945" transform="translate(0,0)"/>
<path d="" fill="#B08C4D" transform="translate(0,0)"/>
</svg>
